<svg xmlns="http://www.w3.org/2000/svg" class="diagram-skills" data-theme="light" viewBox="0 0 2406 620" role="img" aria-labelledby="diagram-title diagram-desc">
<title id="diagram-title">Agent 任务执行闭环</title><desc id="diagram-desc">Agent 工作流 / Agent Workflow with 8 nodes and 9 edges</desc>
<defs>
<filter id="shadow" x="-20%" y="-20%" width="140%" height="150%"><feDropShadow dx="0" dy="2" stdDeviation="4" flood-color="var(--shadow)"/></filter>
<marker id="arrow-primary" viewBox="0 0 10 10" refX="9" refY="5" markerWidth="7" markerHeight="7" orient="auto-start-reverse"><path d="M0 0L10 5L0 10Z" fill="var(--edge-primary)"/></marker>
<marker id="arrow-control" viewBox="0 0 10 10" refX="9" refY="5" markerWidth="7" markerHeight="7" orient="auto-start-reverse"><path d="M0 0L10 5L0 10Z" fill="var(--edge-control)"/></marker>
<marker id="arrow-feedback" viewBox="0 0 10 10" refX="9" refY="5" markerWidth="7" markerHeight="7" orient="auto-start-reverse"><path d="M0 0L10 5L0 10Z" fill="var(--edge-feedback)"/></marker>
<marker id="arrow-async" viewBox="0 0 10 10" refX="9" refY="5" markerWidth="7" markerHeight="7" orient="auto-start-reverse"><path d="M0 0L10 5L0 10Z" fill="var(--edge-async)"/></marker>
<marker id="arrow-success" viewBox="0 0 10 10" refX="9" refY="5" markerWidth="7" markerHeight="7" orient="auto-start-reverse"><path d="M0 0L10 5L0 10Z" fill="var(--edge-success)"/></marker>
<marker id="arrow-error" viewBox="0 0 10 10" refX="9" refY="5" markerWidth="7" markerHeight="7" orient="auto-start-reverse"><path d="M0 0L10 5L0 10Z" fill="var(--edge-error)"/></marker>
</defs>
<style>
.diagram-skills{--page:#ffffff;--surface:#ffffff;--ink:#172033;--muted:#526071;--hair:#d7e0ea;--group:#f8fafc;--group_stroke:#c7d2e0;--shadow:#31537a18;--node-process:#eff6ff;--node-process-stroke:#60a5fa;--node-decision:#fff7ed;--node-decision-stroke:#fb923c;--node-input:#fdf4ff;--node-input-stroke:#d946ef;--node-document:#f0fdf4;--node-document-stroke:#4ade80;--node-database:#ecfeff;--node-database-stroke:#22d3ee;--node-agent:#f5f3ff;--node-agent-stroke:#8b5cf6;--node-external:#f8fafc;--node-external-stroke:#94a3b8;--group-tone-0:#eff6ff;--group-tone-1:#ecfeff;--group-tone-2:#f5f3ff;--group-tone-3:#fff7ed;--group-tone-4:#f0fdf4;--group-tone-5:#fff1f2;--edge-primary:#2563eb;--edge-control:#ea580c;--edge-feedback:#7c3aed;--edge-async:#64748b;--edge-success:#059669;--edge-error:#dc2626;font-family:Inter,ui-sans-serif,system-ui,-apple-system,"Segoe UI","PingFang SC","Microsoft YaHei",sans-serif;background:var(--page)}}
.diagram-skills[data-theme="dark"]{--page:#0c1117;--surface:#151b23;--ink:#f8fafc;--muted:#a8b3c2;--hair:#334155;--group:#16253a;--group_stroke:#42648f;--shadow:#00000055;--node-process:#151b23;--node-process-stroke:#334155;--node-decision:#151b23;--node-decision-stroke:#334155;--node-input:#151b23;--node-input-stroke:#334155;--node-document:#151b23;--node-document-stroke:#334155;--node-database:#151b23;--node-database-stroke:#334155;--node-agent:#151b23;--node-agent-stroke:#334155;--node-external:#151b23;--node-external-stroke:#334155;--group-tone-0:#16253a;--group-tone-1:#16253a;--group-tone-2:#16253a;--group-tone-3:#16253a;--group-tone-4:#16253a;--group-tone-5:#16253a}
text{fill:var(--ink)}.page-bg{fill:var(--page)}.title{font-size:25px;font-weight:800}.subtitle{font-size:12.5px;fill:var(--muted)}.type-badge{font-size:10px;font-weight:800;fill:var(--muted);letter-spacing:.4px}.type-badge-bg{fill:var(--surface);stroke:var(--hair)}
.lane-box{fill:var(--surface);stroke:var(--hair);stroke-width:1.1}.lane:nth-child(even) .lane-box{fill:var(--group)}.lane-title{font-size:12px;font-weight:850;fill:var(--muted);letter-spacing:.45px}.group-box{fill:var(--group);stroke:var(--group-stroke);stroke-width:1.2}.group.tone-0 .group-box{fill:var(--group-tone-0)}.group.tone-1 .group-box{fill:var(--group-tone-1)}.group.tone-2 .group-box{fill:var(--group-tone-2)}.group.tone-3 .group-box{fill:var(--group-tone-3)}.group.tone-4 .group-box{fill:var(--group-tone-4)}.group.tone-5 .group-box{fill:var(--group-tone-5)}.group-title{font-size:12px;font-weight:800;fill:var(--muted);letter-spacing:.5px}
.node-shape{stroke-width:1.25;filter:url(#shadow)}.node-shape.process{fill:var(--node-process);stroke:var(--node-process-stroke)}.node-shape.decision{fill:var(--node-decision);stroke:var(--node-decision-stroke)}.node-shape.input{fill:var(--node-input);stroke:var(--node-input-stroke)}.node-shape.document{fill:var(--node-document);stroke:var(--node-document-stroke)}.node-shape.database{fill:var(--node-database);stroke:var(--node-database-stroke)}.node-shape.agent{fill:var(--node-agent);stroke:var(--node-agent-stroke);stroke-width:1.7}.node-shape.external{fill:var(--node-external);stroke:var(--node-external-stroke);stroke-dasharray:6 4}.agent-inner{fill:none;stroke:var(--node-agent-stroke);stroke-width:.8;opacity:.55}.node-detail{fill:none;stroke:var(--hair);stroke-width:1.1}
.node-title{font-size:14.5px;font-weight:750;text-anchor:middle;dominant-baseline:middle}.node-subtitle{font-size:11.5px;fill:var(--muted);text-anchor:middle;dominant-baseline:middle}
.edge{fill:none;stroke-linecap:round;stroke-linejoin:round}.edge-label-bg{fill:var(--page);stroke:var(--hair);stroke-width:.7;opacity:.97}.edge-label{font-size:10.8px;font-weight:650;text-anchor:middle;dominant-baseline:middle;fill:var(--muted)}
.legend-bg{fill:var(--surface);stroke:var(--hair)}.legend-text{font-size:10.5px;fill:var(--muted)}.node-link{cursor:pointer}.node-link:focus .node-shape,.node-link:hover .node-shape{stroke:var(--edge-primary);stroke-width:2.4}.node-link:focus{outline:none}
</style>
<rect class="page-bg" width="2406" height="620"/>
<text class="title" x="72" y="48">Agent 任务执行闭环</text>
<text class="subtitle" x="72" y="75">意图理解、上下文构建、工具执行、质量校验与记忆回写</text>
<g class="diagram-type"><rect class="type-badge-bg" x="2147.6" y="31" width="186.4" height="25" rx="12.5"/><text class="type-badge" x="2240.8" y="47" text-anchor="middle">Agent 工作流 / Agent Workflow</text></g>
<path class="edge primary" style="stroke:var(--edge-primary)" stroke-width="2" d="M 303.8 218 L 362.8 218 L 421.8 218" marker-end="url(#arrow-primary)"/>
<path class="edge control" style="stroke:var(--edge-control)" stroke-width="1.8" stroke-dasharray="7 3" d="M 647.4 218 L 706.4 218 L 765.4 218" marker-end="url(#arrow-control)"/>
<path class="edge primary" style="stroke:var(--edge-primary)" stroke-width="2" d="M 1003.4 218 L 1062.4 218 L 1121.4 218" marker-end="url(#arrow-primary)"/>
<path class="edge success" style="stroke:var(--edge-success)" stroke-width="2.7" d="M 1353.2 218 L 1412.2 218 L 1412.2 157 L 1471.2 157" marker-end="url(#arrow-success)"/>
<path class="edge error" style="stroke:var(--edge-error)" stroke-width="2.3" stroke-dasharray="4 3" d="M 1353.2 218 L 1412.2 218 L 1412.2 279 L 1471.2 279" marker-end="url(#arrow-error)"/>
<path class="edge feedback" style="stroke:var(--edge-feedback)" stroke-width="2.1" stroke-dasharray="10 4" d="M 1659.2 279 L 2362 279 L 2362 356 L 737.4 356 L 737.4 218 L 765.4 218" marker-end="url(#arrow-feedback)"/>
<path class="edge primary" style="stroke:var(--edge-primary)" stroke-width="2" d="M 1659.2 157 L 1718.2 157 L 1718.2 218 L 1777.2 218" marker-end="url(#arrow-primary)"/>
<path class="edge success" style="stroke:var(--edge-success)" stroke-width="2.7" d="M 1984.2 218 L 2043.2 218 L 2102.2 218" marker-end="url(#arrow-success)"/>
<path class="edge feedback" style="stroke:var(--edge-feedback)" stroke-width="2.1" stroke-dasharray="10 4" d="M 2334 218 L 2372 218 L 2372 378 L 385.8 378 L 385.8 218 L 421.8 218" marker-end="url(#arrow-feedback)"/>
<g class="node" id="node-request"><path class="node-shape input" d="M 90 179 H 303.8 L 285.8 257 H 72 Z"/><text class="node-title" x="187.9" y="208">用户意图</text><text class="node-subtitle" x="187.9" y="230">Goal · Constraint · Context</text></g>
<g class="node" id="node-plan"><rect class="node-shape agent" x="421.8" y="179" width="225.6" height="78" rx="13"/><rect class="agent-inner" x="426.8" y="184" width="215.6" height="68" rx="9"/><text class="node-title" x="534.6" y="208">任务规划</text><text class="node-subtitle" x="534.6" y="230">Decompose · Route · Budget</text></g>
<g class="node" id="node-retrieve"><path class="node-shape database" d="M 765.4 186 C 765.4 172 1003.4 172 1003.4 186 V 250 C 1003.4 264 765.4 264 765.4 250 Z"/><ellipse class="node-detail" cx="884.4" cy="186" rx="119" ry="12"/><text class="node-title" x="884.4" y="211">构建上下文</text><text class="node-subtitle" x="884.4" y="233">Memory · Files · Recent work</text></g>
<g class="node" id="node-gate"><path class="node-shape decision" d="M 1237.3 162 L 1353.2 218 L 1237.3 274 L 1121.4 218 Z"/><text class="node-title" x="1237.3" y="208">信息充分？</text><text class="node-subtitle" x="1237.3" y="230">Authority · Risk · Evidence</text></g>
<g class="node" id="node-execute"><rect class="node-shape agent" x="1471.2" y="118" width="188" height="78" rx="13"/><rect class="agent-inner" x="1476.2" y="123" width="178" height="68" rx="9"/><text class="node-title" x="1565.2" y="147">调用工具执行</text><text class="node-subtitle" x="1565.2" y="169">MCP · API · Code</text></g>
<g class="node" id="node-clarify"><rect class="node-shape external" x="1471.2" y="240" width="188" height="78" rx="13"/><text class="node-title" x="1565.2" y="269">请求补充信息</text><text class="node-subtitle" x="1565.2" y="291">Only material choices</text></g>
<g class="node" id="node-verify"><rect class="node-shape process" x="1777.2" y="179" width="207" height="78" rx="13"/><text class="node-title" x="1880.7" y="208">验证结果</text><text class="node-subtitle" x="1880.7" y="230">Tests · Review · Safety</text></g>
<g class="node" id="node-deliver"><path class="node-shape document" d="M 2102.2 179 H 2316 L 2334 197 V 248 Q 2218.1 264 2102.2 248 Z"/><path class="node-detail" d="M 2316 179 V 197 H 2334"/><text class="node-title" x="2218.1" y="208">交付与回写</text><text class="node-subtitle" x="2218.1" y="230">Artifact · Summary · Memory</text></g>
<g class="edge-label-group"><rect class="edge-label-bg" x="1394.2" y="177.5" width="36" height="20" rx="7"/><text class="edge-label" x="1412.2" y="187.5">是</text></g>
<g class="edge-label-group"><rect class="edge-label-bg" x="1394.2" y="238.5" width="36" height="20" rx="7"/><text class="edge-label" x="1412.2" y="248.5">否</text></g>
<g class="edge-label-group"><rect class="edge-label-bg" x="1508.05" y="338" width="83.3" height="20" rx="7"/><text class="edge-label" x="1549.7" y="348">new context</text></g>
<g class="edge-label-group"><rect class="edge-label-bg" x="1356.15" y="360" width="45.5" height="20" rx="7"/><text class="edge-label" x="1378.9" y="370">learn</text></g>
<g class="legend"><rect class="legend-bg" x="821" y="554" width="764" height="36" rx="12"/>
<path d="M 839 572 H 863" stroke="var(--edge-primary)" stroke-width="2"/><text class="legend-text" x="871" y="576">Primary flow</text>
<path d="M 987 572 H 1011" stroke="var(--edge-control)" stroke-width="1.8" stroke-dasharray="7 3"/><text class="legend-text" x="1019" y="576">Control / trigger</text>
<path d="M 1135 572 H 1159" stroke="var(--edge-success)" stroke-width="2.7"/><text class="legend-text" x="1167" y="576">Success branch</text>
<path d="M 1283 572 H 1307" stroke="var(--edge-error)" stroke-width="2.3" stroke-dasharray="4 3"/><text class="legend-text" x="1315" y="576">Error branch</text>
<path d="M 1431 572 H 1455" stroke="var(--edge-feedback)" stroke-width="2.1" stroke-dasharray="10 4"/><text class="legend-text" x="1463" y="576">Feedback / iteration</text>
</g>
</svg>
